<svg width="12" height="12" viewBox="0 0 12 12" fill="none" xmlns="http://www.w3.org/2000/svg">
<path d="M6.44053 10.6505L6.44053 6.44124H10.5595C10.8027 6.44124 11 6.23965 11 5.99106C11 5.74247 10.8027 5.54087 10.5595 5.54087H6.44053V1.33165C6.44053 1.08306 6.24326 0.88147 6 0.88147C5.75674 0.88147 5.55947 1.08306 5.55947 1.33165V5.54087L1.44053 5.54087C1.19727 5.54087 1 5.74247 1 5.99106C1 6.23965 1.19727 6.44124 1.44053 6.44124L5.55947 6.44124L5.55947 10.6505C5.55947 10.8991 5.75674 11.1006 6 11.1006C6.24326 11.1006 6.44053 10.8991 6.44053 10.6505" stroke="currentColor"/>
</svg>
